<svg height="24" viewBox="0 -960 960 960" width="24" fill="#e8eaed" xmlns="http://www.w3.org/2000/svg">
  <path d="M112.941-282.353h112.941q24 0 40.236 16.235 16.235 16.236 16.235 40.236t-16.235 40.235-40.236 16.235H56.471q-24 0-40.236-16.235Q0-201.883 0-225.882v-169.412q0-24 16.235-40.235 16.236-16.236 40.236-16.236t40.235 16.236 16.235 40.235zm0-564.706v112.941q0 24-16.235 40.236-16.236 16.236-40.235 16.235-24 0-40.236-16.235Q0-710.118 0-734.118v-169.411q0-24 16.235-40.236Q32.471-960.001 56.471-960h169.411q24 0 40.236 16.235 16.235 16.236 16.235 40.236t-16.235 40.235-40.236 16.235zm564.706 0H564.706q-24 0-40.235-16.235-16.236-16.236-16.236-40.235 0-24 16.236-40.236 16.235-16.236 40.235-16.235h169.412q24 0 40.235 16.235 16.235 16.236 16.235 40.236v169.411q0 24-16.235 40.236-16.236 16.236-40.235 16.235-24 0-40.236-16.235-16.235-16.236-16.235-40.236zm0 677.647H564.706q-24 0-40.235-16.235-16.236-16.236-16.236-40.235 0-24 16.236-40.236 16.235-16.236 40.235-16.235h112.941v-112.941q0-24 16.235-40.235 16.236-16.236 40.236-16.236t40.235 16.236 16.235 40.235v112.941h112.941q24 0 40.236 16.235Q960-249.882 960-225.882t-16.235 40.235-40.236 16.235H790.588v112.941q0 24-16.235 40.236Q758.117.001 734.118 0q-24 0-40.236-16.235-16.235-16.236-16.235-40.236z"/>
</svg>
