<svg height="24px" viewBox="0 -960 960 960" width="24px" fill="#e8eaed" xmlns="http://www.w3.org/2000/svg">
  <defs></defs>
  <path d="M 370.909 -80 L 152.727 -80 C 132.727 -80 115.606 -87.833 101.364 -103.5 C 87.121 -119.167 80 -138 80 -160 L 80 -360 C 80 -371.333 83.485 -380.833 90.455 -388.5 C 97.424 -396.167 106.061 -400 116.364 -400 C 126.667 -400 135.303 -396.167 142.273 -388.5 C 149.242 -380.833 152.727 -371.333 152.727 -360 L 152.727 -160 L 370.909 -160 C 381.212 -160 389.848 -156.167 396.818 -148.5 C 403.788 -140.833 407.273 -131.333 407.273 -120 C 407.273 -108.667 403.788 -99.167 396.818 -91.5 C 389.848 -83.833 381.212 -80 370.909 -80 Z M 589.091 -160 L 807.273 -160 L 807.273 -360 C 807.273 -371.333 810.758 -380.833 817.727 -388.5 C 824.697 -396.167 833.333 -400 843.636 -400 C 853.939 -400 862.576 -396.167 869.545 -388.5 C 876.515 -380.833 880 -371.333 880 -360 L 880 -160 C 880 -138 872.879 -119.167 858.636 -103.5 C 844.394 -87.833 827.273 -80 807.273 -80 L 589.091 -80 C 578.788 -80 570.151 -83.833 563.182 -91.5 C 556.212 -99.167 552.727 -108.667 552.727 -120 C 552.727 -131.333 556.212 -140.833 563.182 -148.5 C 570.151 -156.167 578.788 -160 589.091 -160 Z M 80 -600 L 80 -800 C 80 -822 87.121 -840.833 101.364 -856.5 C 115.606 -872.167 132.727 -880 152.727 -880 L 370.909 -880 C 381.212 -880 389.848 -876.167 396.818 -868.5 C 403.788 -860.833 407.273 -851.333 407.273 -840 C 407.273 -828.667 403.788 -819.167 396.818 -811.5 C 389.848 -803.833 381.212 -800 370.909 -800 L 152.727 -800 L 152.727 -600 C 152.727 -588.667 149.242 -579.167 142.273 -571.5 C 135.303 -563.833 126.667 -560 116.364 -560 C 106.061 -560 97.424 -563.833 90.455 -571.5 C 83.485 -579.167 80 -588.667 80 -600 Z M 807.273 -600 L 807.273 -800 L 589.091 -800 C 578.788 -800 570.151 -803.833 563.182 -811.5 C 556.212 -819.167 552.727 -828.667 552.727 -840 C 552.727 -851.333 556.212 -860.833 563.182 -868.5 C 570.151 -876.167 578.788 -880 589.091 -880 L 807.273 -880 C 827.273 -880 844.394 -872.167 858.636 -856.5 C 872.879 -840.833 880 -822 880 -800 L 880 -600 C 880 -588.667 876.515 -579.167 869.545 -571.5 C 862.576 -563.833 853.939 -560 843.636 -560 C 833.333 -560 824.697 -563.833 817.727 -571.5 C 810.758 -579.167 807.273 -588.667 807.273 -600 Z"></path>
</svg>