<svg height="24px" viewBox="0 -960 960 960" width="24px" fill="#e8eaed" xmlns="http://www.w3.org/2000/svg" xmlns:xlink="http://www.w3.org/1999/xlink">
  <defs>
    <pattern x="0" y="0" width="25" height="25" patternUnits="userSpaceOnUse" viewBox="0 0 100 100" id="pattern-0">
      <rect x="0" y="0" width="50" height="100" style="fill: black;"></rect>
    </pattern>
    <pattern id="pattern-0-0" patternTransform="matrix(1, 0, 0, 1, 472.337994, -566.498032)" xlink:href="#pattern-0"></pattern>
  </defs>
  <path d="M 384 -133.333 L 384 -226.667 L 96 -226.667 C 69.6 -226.667 47 -235.805 28.2 -254.083 C 9.4 -272.362 0 -294.333 0 -320 L 0 -786.667 C 0 -812.333 9.4 -834.305 28.2 -852.583 C 47 -870.861 69.6 -880 96 -880 L 864 -880 C 890.4 -880 913 -870.861 931.8 -852.583 C 950.6 -834.305 960 -812.333 960 -786.667 L 960 -320 C 960 -294.333 950.6 -272.362 931.8 -254.083 C 913 -235.805 890.4 -226.667 864 -226.667 L 576 -226.667 L 576 -133.333 L 624 -133.333 C 637.6 -133.333 649 -128.862 658.2 -119.917 C 667.4 -110.972 672 -99.889 672 -86.667 C 672 -73.445 667.4 -62.362 658.2 -53.417 C 649 -44.472 637.6 -40 624 -40 L 336 -40 C 322.4 -40 311 -44.472 301.8 -53.417 C 292.6 -62.362 288 -73.445 288 -86.667 C 288 -99.889 292.6 -110.972 301.8 -119.917 C 311 -128.862 322.4 -133.333 336 -133.333 L 384 -133.333 Z M 96 -320 L 864 -320 L 864 -786.667 L 96 -786.667 L 96 -320 Z M 96 -320 L 96 -786.667 L 96 -320 Z"></path>
  <rect y="-720" width="960" height="350.459" style=""></rect>
</svg>